<?xml version="1.0" standalone="no"?>
<!DOCTYPE svg PUBLIC "-//W3C//DTD SVG 20010904//EN"
 "http://www.w3.org/TR/2001/REC-SVG-20010904/DTD/svg10.dtd">
<svg version="1.0" xmlns="http://www.w3.org/2000/svg"
 width="500.000000pt" height="500.000000pt" viewBox="0 0 500.000000 500.000000"
 preserveAspectRatio="xMidYMid meet">

<g transform="translate(0.000000,500.000000) scale(0.100000,-0.100000)"
fill="#000000" stroke="none">
<path d="M0 2500 l0 -2500 2500 0 2500 0 0 2500 0 2500 -2500 0 -2500 0 0
-2500z m2666 389 c241 -241 442 -439 446 -439 5 0 8 196 8 435 l0 435 180 0
180 0 0 -825 0 -825 -47 0 -48 0 -627 627 -628 628 0 201 c0 110 2 203 4 205
3 2 24 3 49 1 43 -4 49 -9 483 -443z m-776 -394 l0 -825 -180 0 -180 0 0 825
0 825 180 0 180 0 0 -825z m600 -547 l0 -278 -180 0 -180 0 0 443 c0 244 3
447 7 451 4 4 85 -71 180 -166 l173 -173 0 -277z"/>
</g>
</svg>
